# xmcd
#
# Track frame offsets:
#	150
#	21620
#	35417
#	49495
#	72707
#	91135
#	109917
#	126178
#	139768
#	153745
#	168501
#	184497
#	198631
#	210748
#
# Disc length: 2994 seconds
#
# Revision: 1
# Processed by: cddbd v1.5.2PL0 Copyright (c) Steve Scherf et al.
# Submitted via: EZCDAudioConverter 8.5.0.1
#
DISCID=e10bb00e
DTITLE=V/A - The Time For Peace Is Now
DYEAR=2019
DGENRE=
TTITLE0=The Little Shadows - Time For Peace
TTITLE1=Rev. Harvey Gates - It's Hard To Live In This Old World
TTITLE2=Floyd Family Singers - That's A Sign Of The Times
TTITLE3=Willie Scott and The Birmingham Spirituals - Keep Your Faith To The Sky
TTITLE4=James Bynum - We Are In Need
TTITLE5=The Religious Souls - Condition The World Is In
TTITLE6=The Triumphs - We Don't Love Enough
TTITLE7=The Gospel I.Q.'s - Peace In The Land
TTITLE8=Staples Jr. Singers - We Got A Race To Run
TTITLE9=The Soul Stirrers - I'm Trying To Be Your Friend
TTITLE10=Willie Dale - Let Your Light Shine
TTITLE11=Rev. Harvey Gates - Price Of Love
TTITLE12=The Mighty Reverlaires - Sunshine After Every Rain
TTITLE13=The William Singers - Don't Give Up
EXTD=
EXTT0=
EXTT1=
EXTT2=
EXTT3=
EXTT4=
EXTT5=
EXTT6=
EXTT7=
EXTT8=
EXTT9=
EXTT10=
EXTT11=
EXTT12=
EXTT13=
PLAYORDER=
